<?xml version="1.0" encoding="iso-8859-1"?>
<!-- Generator: Adobe Illustrator 19.0.0, SVG Export Plug-In . SVG Version: 6.00 Build 0)  -->
<svg version="1.1" id="Capa_1" xmlns="http://www.w3.org/2000/svg" xmlns:xlink="http://www.w3.org/1999/xlink" x="0px" y="0px"
	 viewBox="0 0 512 512" style="enable-background:new 0 0 512 512;" xml:space="preserve">
<path style="fill:#BFE1FF;" d="M442.579,260.115c43.699-43.699,52.184-111.157,20.576-163.978c0.212-0.212,0.212-0.212,0.212-0.212
	c-5.94-9.757-12.94-18.88-20.789-26.729c-21.213-21.213-49.002-35.001-79.338-38.608c-41.365-4.879-82.095,9.123-111.58,38.608
	l-42.426,42.426c-34.79,34.79-47.942,85.702-34.578,131.311c0.848,4.243,11.03,32.243,14.848,33.941
	c5.728,9.545,12.305,18.243,19.729,25.667c15.273,15.273,33.305,25.668,52.396,32.032v0.425l29.91,40.517l56.639-40.517l0.001-0.848
	c18.88-6.153,36.911-16.547,51.973-31.609L442.579,260.115z M347.121,249.508l-45.609-18.88l-38.396,18.032l-0.849,0.425
	c-10.607-10.607-17.606-24.82-18.455-39.669c-0.848-14.85,4.455-30.759,18.457-44.761l42.426-42.426
	c23.122-23.122,61.305-22.698,84.64,0.212c0.212,0.212,0.212,0.212,0.425,0.425c24.394,24.394,22.485,61.519-0.212,84.216
	L347.121,249.508z"/>
<path style="fill:#A3D4FF;" d="M400.154,302.541c-15.062,15.062-33.093,25.456-51.973,31.609l-0.001,0.848l-56.639,40.517
	l-29.91-40.517v-0.425c-19.091-6.364-37.123-16.759-52.396-32.032l53.881-53.881l38.396-18.032l45.609,18.88l42.426-42.426
	c22.697-22.697,24.607-59.821,0.212-84.216c-0.212-0.212-0.212-0.212-0.425-0.425l53.245-53.245
	c7.849,7.849,14.848,16.972,20.789,26.729c0,0,0,0-0.212,0.212c31.607,52.821,23.123,120.279-20.576,163.978L400.154,302.541z"/>
<g>
	<path style="fill:#65B1FC;" d="M348.18,334.998c-28.002,9.334-58.547,9.334-86.549,0l-41.366,41.366
		c-28.002,28.002-63.427,21.001-84.64-0.212c-21.426-21.001-28.637-56.216-0.212-84.64l42.426-42.426
		c23.123-23.123,60.883-22.698,84.428,0l0.637,0.637c21.213,20.789,56.428,27.576,84.217-0.214l0.848-0.848
		c-2.758-8.698-6.788-17.395-11.667-25.668l0.211-0.211c-5.939-9.759-13.152-18.668-21.001-26.516
		c-14.849-14.85-32.456-26.093-52.184-32.669c-8.698-3.183-17.818-5.091-26.941-6.153c-20.577-2.332-40.941-0.211-59.609,6.154
		c-19.305,6.575-37.123,17.606-51.973,32.456L82.378,238.48C47.589,273.268,34.438,324.179,47.59,370
		c1.06,4.031,11.242,32.031,15.061,33.728c5.727,9.546,12.304,18.244,19.728,25.668c52.608,52.608,138.311,52.608,190.919,0
		l42.426-42.426C330.786,371.909,341.605,353.878,348.18,334.998z"/>
	<path style="fill:#65B1FC;" d="M503.25,50.953L379.364,174.838c-11.667,11.667-30.759,11.667-42.426,0s-11.667-30.759,0-42.426
		L460.823,8.526c11.368-11.368,31.058-11.368,42.426,0C514.917,20.193,514.917,39.286,503.25,50.953z"/>
</g>
<g>
	<path style="fill:#1689FC;" d="M336.938,174.838L503.25,8.526c11.667,11.667,11.667,30.759,0,42.426L379.364,174.838
		C367.697,186.505,348.605,186.505,336.938,174.838z"/>
	<path style="fill:#1689FC;" d="M262.904,249.722l-0.425-0.425l53.033-53.033c7.849,7.849,15.062,16.758,21.001,26.516l-0.211,0.211
		c4.879,8.273,8.909,16.97,11.667,25.668l-0.848,0.848C319.331,277.297,284.117,270.51,262.904,249.722z"/>
	<path style="fill:#1689FC;" d="M315.724,386.971l-42.426,42.426c-52.608,52.608-138.311,52.608-190.919,0l53.245-53.245
		c21.213,21.213,56.639,28.214,84.64,0.212l41.366-41.366c28.002,9.334,58.547,9.334,86.549,0
		C341.605,353.878,330.786,371.909,315.724,386.971z"/>
</g>
<path style="fill:#BFE1FF;" d="M177.837,376.364L50.952,503.25c-11.667,11.667-30.76,11.667-42.426,0
	c-11.368-11.368-11.368-31.058,0-42.426l126.886-126.886c11.667-11.667,30.759-11.667,42.426,0
	C189.505,345.605,189.505,364.697,177.837,376.364z"/>
<path style="fill:#A3D4FF;" d="M177.837,376.364L50.952,503.25c-11.667,11.667-30.76,11.667-42.426,0l169.312-169.312
	C189.505,345.605,189.505,364.697,177.837,376.364z"/>
<g>
</g>
<g>
</g>
<g>
</g>
<g>
</g>
<g>
</g>
<g>
</g>
<g>
</g>
<g>
</g>
<g>
</g>
<g>
</g>
<g>
</g>
<g>
</g>
<g>
</g>
<g>
</g>
<g>
</g>
</svg>
